<?xml version="1.0" encoding="UTF-8"?>
<svg preserveAspectRatio="xMidYMid slice" xmlns="http://www.w3.org/2000/svg" width="53px" height="68px" viewBox="0 0 129 164">
  <g>
    <g>
      <path fill="#f0f1f1" d="M125.963 138.214a24.497 24.497 0 0 0-11.959-17.179L82.38 102.867a6.44 6.44 0 0 1-2.322-2.26c-1.622-2.694-1.124-6.386 1.684-8.432a29.254 29.254 0 0 0 3.495-3.01c.338-.34.615-.73.935-1.086.708-.784 1.414-1.565 2.033-2.423.355-.489.637-1.026.96-1.538.497-.789 1.004-1.567 1.424-2.404.302-.598.528-1.232.788-1.853.27-.647.597-1.264.82-1.933l-.01-.16c.097-.299.25-.573.338-.877h.016s.472-1.672 1.113-4.043a6.493 6.493 0 0 0 7.461-3.446c.003 0 .006.004.01.007.72-1.572 2.006-6.203 2.376-8.045.304-1.507.851-4.494.985-6.537 0-.013.006-.023.006-.036.007-.049-.003-.098.004-.146.016-.364.02-.686.01-.965-.007-.084-.004-.169-.01-.253-.004-.01 0-.023-.004-.036 0 0-.003 0-.006-.003a6.472 6.472 0 0 0-5.74-5.716c-.046-.003-.092.003-.138 0 .652-5.086 1.264-9.99 1.407-11.166a28.5 28.5 0 0 0 .187-3.192c0-10.069-5.2-18.89-13.047-24.089l-.004-.055c-.09-.06-.196-.098-.288-.157a29.26 29.26 0 0 0-3.985-2.18C78.617 4.64 72.018 3.23 64.593 3.23h-.252c-7.425 0-14.022 1.41-18.283 3.602a29.363 29.363 0 0 0-3.985 2.18c-.092.06-.198.098-.289.158l-.004.056c-7.846 5.2-13.046 14.02-13.046 24.088a28.5 28.5 0 0 0 .186 3.192c.144 1.176.756 6.08 1.407 11.166-.045.003-.092-.003-.137 0a6.472 6.472 0 0 0-5.74 5.716c-.003.003-.007.003-.007.003-.003.013 0 .026-.003.036-.006.084-.003.17-.01.253-.01.28-.006.601.01.965.007.048-.003.097.003.146 0 .013.007.023.007.036.134 2.043.681 5.03.985 6.537.37 1.842 1.656 6.473 2.376 8.045.003-.003.006-.007.01-.007a6.493 6.493 0 0 0 7.461 3.446 440.83 440.83 0 0 0 1.112 4.043h.017c.09.304.24.578.34.877l-.013.16c.225.672.553 1.292.824 1.941.26.617.483 1.25.783 1.844.422.838.928 1.618 1.427 2.408.323.511.605 1.046.958 1.535.621.86 1.331 1.646 2.041 2.433.318.351.593.738.927 1.073a29.111 29.111 0 0 0 3.496 3.013c2.807 2.046 3.305 5.738 1.683 8.431a6.44 6.44 0 0 1-2.322 2.261L14.93 121.035A24.497 24.497 0 0 0 2.65 141.32a65.173 65.173 0 0 0 5.46 2.445c13.697 5.43 33.863 8.86 56.356 8.86h.003c22.492 0 42.66-3.43 56.355-8.86a65.053 65.053 0 0 0 5.462-2.445 24.632 24.632 0 0 0-.323-3.106z"></path>
    </g>
    <g>
      <path fill="#414142" d="M7.247 145.947a67.012 67.012 0 0 1-5.66-2.536 2.34 2.34 0 0 1-1.282-2.19c.048-1.142.167-2.285.352-3.396A26.778 26.778 0 0 1 13.763 119l31.624-18.17a4.063 4.063 0 0 0 1.48-1.435c.923-1.535.868-3.923-1.054-5.325a31.318 31.318 0 0 1-3.778-3.254c-.25-.25-.48-.525-.706-.802l-.302-.358c-.692-.763-1.482-1.635-2.197-2.626a14.484 14.484 0 0 1-.745-1.165l-.46-.751c-.484-.766-.965-1.533-1.375-2.348-.236-.47-.438-.962-.635-1.457l-.485-1.141a14.96 14.96 0 0 1-.617-1.498 2.366 2.366 0 0 1-.101-.43c-.052-.127-.096-.235-.132-.332a2.369 2.369 0 0 1-.145-.382s-.231-.821-.59-2.131c-3.19-.047-6.196-1.825-7.715-4.73a2.83 2.83 0 0 1-.151-.277c-.848-1.851-2.177-6.73-2.543-8.564-.197-.974-.848-4.317-1.02-6.735l-.002-.035a2.729 2.729 0 0 1-.016-.235c-.003-.051-.003-.1-.003-.145-.018-.443-.02-.777-.01-1.071l.013-.243c.002-.117.013-.243.032-.356l.014-.071c.426-3.218 2.632-5.912 5.59-7.056-.545-4.286-1.017-8.071-1.141-9.085a30.966 30.966 0 0 1-.204-3.48c0-10.324 5.134-19.943 13.754-25.813.105-.105.217-.2.34-.282.083-.055.315-.185.404-.23a31 31 0 0 1 4.218-2.3C49.754 2.292 56.81.885 64.34.885h.252c7.534 0 14.59 1.407 19.358 3.86 1.292.57 2.7 1.34 4.184 2.297.045.013.174.082.295.16.142.093.27.198.387.315 8.606 5.873 13.73 15.484 13.73 25.797a30.02 30.02 0 0 1-.203 3.457c-.124 1.033-.6 4.842-1.148 9.144 3.018 1.173 5.18 3.846 5.597 7.029.012.058.02.114.028.17l.014.12c.002.055.01.235.01.288.015.412.013.795-.006 1.227l-.002.049c0 .097-.007.197-.021.297l-.002.028c-.002.015-.004.03-.01.046-.192 2.508-.81 5.702-1.003 6.657-.371 1.839-1.697 6.715-2.543 8.56a2.43 2.43 0 0 1-.162.297c-1.52 2.896-4.521 4.667-7.705 4.714-.36 1.31-.592 2.132-.592 2.132a2.48 2.48 0 0 1-.144.378 7.525 7.525 0 0 1-.151.375 2.133 2.133 0 0 1-.083.393c-.171.507-.387.993-.607 1.476l-.497 1.167c-.197.492-.396.984-.635 1.456-.405.808-.886 1.576-1.372 2.344l-.476.774c-.23.386-.461.77-.724 1.135-.697.96-1.453 1.8-2.186 2.612-.12.133-.22.258-.323.383-.225.273-.45.545-.7.796a31.67 31.67 0 0 1-3.777 3.253c-1.925 1.402-1.98 3.79-1.056 5.325a4.064 4.064 0 0 0 1.482 1.437L115.172 119a26.774 26.774 0 0 1 13.105 18.823c.19 1.13.31 2.277.353 3.403a2.342 2.342 0 0 1-1.281 2.184 67.032 67.032 0 0 1-5.661 2.536c-14.468 5.735-35.324 9.025-57.218 9.025-21.897 0-42.755-3.29-57.223-9.025zm1.727-4.363c13.942 5.527 34.168 8.695 55.49 8.695 21.329 0 41.555-3.168 55.497-8.695a65.564 65.564 0 0 0 3.869-1.673 22.184 22.184 0 0 0-.181-1.307 22.091 22.091 0 0 0-10.814-15.534L81.21 104.9a8.828 8.828 0 0 1-3.162-3.083c-2.353-3.905-1.36-8.865 2.312-11.538a26.924 26.924 0 0 0 3.212-2.768c.142-.144.268-.304.396-.461.152-.183.303-.367.46-.543.69-.764 1.332-1.475 1.877-2.227.177-.246.332-.516.493-.784l.545-.887c.403-.637.809-1.27 1.148-1.945.179-.357.323-.722.467-1.088l.255-.624c.103-.247.217-.497.33-.746.114-.248.229-.497.33-.752.016-.154.043-.302.082-.42.067-.201.147-.395.229-.588a2.45 2.45 0 0 1 .154-.39c.142-.51.543-1.944 1.05-3.82a2.354 2.354 0 0 1 2.847-1.66c1.915.49 3.918-.434 4.765-2.193.023-.05.048-.096.074-.142.637-1.53 1.79-5.683 2.126-7.341.385-1.91.834-4.55.942-6.225.002-.03.004-.06.009-.09.002-.096.01-.197.02-.272-.007-.067-.004-.328-.011-.555l.007-.001a1.47 1.47 0 0 1-.016-.116c-.202-1.862-1.69-3.368-3.554-3.623a2.342 2.342 0 0 1-1.808-.862 2.35 2.35 0 0 1-.51-1.781c.65-5.08 1.262-9.976 1.404-11.15a25.53 25.53 0 0 0 .172-2.911c0-8.881-4.486-17.154-12-22.132a2.632 2.632 0 0 1-.23-.174.16.16 0 0 0-.023-.016c-1.288-.83-2.486-1.487-3.677-2.015-4.188-2.152-10.622-3.4-17.333-3.4h-.252c-6.708 0-13.142 1.248-17.211 3.34a27.666 27.666 0 0 0-3.784 2.068l-.046.027a2.301 2.301 0 0 1-.223.17C35.565 16.158 31.08 24.43 31.08 33.314c0 .94.055 1.898.172 2.933.14 1.148.752 6.047 1.402 11.128a2.35 2.35 0 0 1-2.321 2.644c-1.862.254-3.347 1.762-3.551 3.624l-.007.056-.007.172c-.002.109 0 .366.016.657 0 .025.003.058.003.094.006.069.009.138.009.206.105 1.542.554 4.173.939 6.07.332 1.665 1.494 5.837 2.13 7.356.024.04.047.084.067.127.853 1.763 2.864 2.684 4.768 2.195a2.344 2.344 0 0 1 2.846 1.66 532.66 532.66 0 0 0 1.035 3.77c.03.073.055.146.078.222.172.409.252.606.319.809.05.152.082.308.1.465.099.244.209.48.317.718.112.245.224.492.33.74l.247.609c.147.367.29.735.467 1.087.344.68.75 1.316 1.15 1.953l.532.863c.16.274.32.549.509.807.566.785 1.264 1.554 1.88 2.234.159.177.305.354.45.53.128.158.254.317.396.46a27.013 27.013 0 0 0 3.219 2.776c3.668 2.674 4.66 7.634 2.31 11.538a8.819 8.819 0 0 1-3.162 3.084L16.1 123.07a22.097 22.097 0 0 0-10.815 15.535c-.073.429-.132.866-.181 1.306a66.407 66.407 0 0 0 3.87 1.673zm95.51-88.195h.023"></path>
    </g>
    <g>
      <path fill="#2bb9d9" d="M47.499 129.759c0 5.533-4.486 10.02-10.02 10.02-5.533 0-10.02-4.487-10.02-10.02 0-5.534 4.487-10.02 10.02-10.02 5.534 0 10.02 4.486 10.02 10.02z"></path>
    </g>
    <g>
      <path fill="#404042" d="M25.487 129.759c0-6.613 5.38-11.993 11.992-11.993 6.613 0 11.993 5.38 11.993 11.993s-5.38 11.993-11.993 11.993c-6.612 0-11.992-5.38-11.992-11.993zm3.946 0c0 4.437 3.609 8.046 8.046 8.046 4.437 0 8.047-3.61 8.047-8.046 0-4.438-3.61-8.047-8.047-8.047-4.437 0-8.046 3.609-8.046 8.047z"></path>
    </g>
    <g>
      <path fill="#404042" d="M81.276 163.456l-.46-1.39c-.223-.675-5.4-16.65.863-26.818 2.64-4.291 6.876-6.898 12.585-7.745 5.699-.837 10.484.418 14.242 3.75 8.957 7.946 8.592 24.87 8.57 25.586l-.044 1.625-9.23 1.539-.65-3.892 5.96-.994c-.14-4.195-1.098-15.485-7.231-20.917-2.884-2.553-6.49-3.468-11.037-2.794-4.564.679-7.77 2.609-9.801 5.904-4.342 7.04-1.925 18.229-.882 22.127l6.955-.176.098 3.946z"></path>
    </g>
    <g>
      <path fill="#404042" d="M34.015 120.808c-.198-.383-4.804-9.478-.827-16.957 2.526-4.749 7.811-7.628 15.71-8.555l.46 3.92c-6.528.764-10.793 2.944-12.678 6.472-3.013 5.642.804 13.235.843 13.313z"></path>
    </g>
    <g>
      <path fill="#404042" d="M99.312 128.757l-3.92-.44c1.274-11.37-.363-19.72-4.87-24.816-4.255-4.81-9.574-4.921-9.799-4.923l.011-3.946c.292 0 7.213.069 12.672 6.176 5.332 5.963 7.318 15.366 5.906 27.949z"></path>
    </g>
  </g>
</svg>
