<svg xmlns="http://www.w3.org/2000/svg" width="231" height="217" viewBox="0 0 231 217"><g><g><path fill="#fff" d="M14.124 148.558h.88l13.75-31.787c.659-1.431 1.869-2.2 3.629-2.2h6.6c3.849 0 4.069 3.63 3.409 5.28l-15.289 34.536 15.288 34.536c.66 1.65.44 5.28-3.408 5.28h-6.6c-1.76 0-2.97-.77-3.63-2.2l-13.749-31.787h-.88v30.138c0 2.419-1.43 3.849-3.85 3.849H4.005c-2.42 0-3.85-1.43-3.85-3.85v-72.042c0-2.421 1.43-3.74 3.85-3.74h6.27c2.42 0 3.85 1.319 3.85 3.74z"/></g><g><path fill="#fff" d="M54.053 110.062c-4.4 0-7.37 3.079-7.37 7.369 0 4.399 2.97 7.369 7.37 7.369 4.29 0 7.37-2.97 7.37-7.37 0-4.29-3.08-7.368-7.37-7.368zm6.27 25.627c0-2.42-1.43-3.74-3.85-3.74h-4.84c-2.42 0-3.85 1.32-3.85 3.74v54.665c0 2.419 1.43 3.85 3.85 3.85h4.84c2.42 0 3.85-1.431 3.85-3.85z"/></g><g><path fill="#fff" d="M102.778 201.683c0 9.79-5.39 14.518-17.159 14.518H78.69c-2.42 0-3.739-1.32-3.739-3.739v-2.09c0-2.42 1.32-3.85 3.74-3.85h6.928c3.41 0 4.73-1.76 4.73-5.17v-11.439c-3.19 3.08-7.479 4.84-11.329 4.84-5.389 0-9.899-3.409-9.899-11.548v-40.257c0-8.14 4.51-11.549 9.9-11.549 3.85 0 8.138 1.76 11.328 4.84v-.55c0-2.42 1.32-3.74 3.74-3.74h4.95c2.42 0 3.74 1.32 3.74 3.74zM81.66 179.355c0 3.52 1.21 4.84 4.18 4.84 2.97 0 4.51-1.43 4.51-4.95v-32.337c0-3.52-1.54-5.06-4.51-5.06-2.97 0-4.18 1.43-4.18 4.84z"/></g><g><path fill="#fff" d="M132.804 157.797v-11.88c0-3.52-1.429-4.838-4.399-4.838-2.859 0-4.29 1.319-4.29 4.839v2.529c0 2.42-1.429 3.74-3.849 3.74h-4.84c-2.419 0-3.849-1.32-3.849-3.74v-2.86c0-9.567 5.39-14.188 16.828-14.188 11.44 0 16.828 4.62 16.828 14.189v44.876c0 2.309-1.319 3.739-3.739 3.739h-4.95c-2.419 0-3.74-1.43-3.74-3.74v-.55c-3.189 3.08-7.478 4.84-11.329 4.84-5.389 0-9.898-3.41-9.898-11.548v-11.22c0-9.57 5.39-14.188 16.828-14.188zm-4.399 9.349c-2.859 0-4.29 1.43-4.29 4.84v7.369c0 3.519 1.211 4.84 4.18 4.84 2.97 0 4.51-1.43 4.51-4.951v-12.098z"/></g><g><path fill="#fff" d="M187.69 190.463c0 2.31-1.32 3.74-3.74 3.74H179c-2.418 0-3.74-1.43-3.74-3.74v-.55c-3.19 3.08-7.477 4.84-11.328 4.84-5.39 0-9.898-3.409-9.898-11.548v-40.257c0-8.14 4.509-11.549 9.898-11.549 3.85 0 8.139 1.76 11.329 4.84v-26.288c0-2.42 1.32-3.74 3.74-3.74h4.949c2.42 0 3.74 1.32 3.74 3.74zm-21.118-11.108c0 3.52 1.21 4.84 4.18 4.84 2.969 0 4.509-1.43 4.509-4.95v-32.337c0-3.52-1.54-5.06-4.51-5.06-2.968 0-4.18 1.43-4.18 4.84z"/></g><g><path fill="#fff" d="M84.958 25.276c-.61-1.628-.895 12.95 7.574 19.026-4.674 6.568-6.608 13.494-6.647 22.587a27.503 27.503 0 0 0-.13 2.662V99.865c0 13.545 9.867 24.628 21.93 24.628h25.864c12.062 0 21.931-11.083 21.931-24.628V69.55c0-.899-.046-1.786-.13-2.66.007-22.757-11.607-37.273-31.82-38.087.294-8.772-11.54-15.53-5.27-26.026C119.9.03 105.283 4.565 107.861 27.04c.042.368-.882-2.34-5.12-5.664-5.532-4.336-5.852-8.046-5.428-10.378.281-1.546-9.549 10.117 2.137 24.724.95 1.187-.746-1.289-6.987-3.73-6.056-2.37-7.053-5.507-7.506-6.716z"/></g><g><path fill="#424241" d="M107.548 125.313c-12.885 0-23.368-11.693-23.368-26.066l.005-21.744.074-.858v-.663c-.015-6.073.001-9.03.052-9.77l.004-1.067c.023-8.206.046-15.988 5.831-21.437-6.989-6.358-7.342-17.926-6.87-19.478.247-.812.89-1.12 1.408-1.136.526-.016 1.182.254 1.484 1.058l.046.124c.41 1.106 1.37 3.696 6.638 5.757a38.13 38.13 0 0 1 1.974.837c-4.883-9.436-2.106-17.517.476-20.864.34-.44 1.24-1.604 2.433-1.073.538.239 1.011.858.858 1.703-.55 3.033 1.051 5.973 4.9 8.99a25.893 25.893 0 0 1 2.493 2.217c-.174-13.173 5.868-19.584 9.843-21.36 1.951-.872 2.94-.402 3.426.146.421.473.67 1.317.102 2.266-3.357 5.62-.964 9.849 1.806 14.745 1.637 2.894 3.324 5.875 3.626 9.182 19.971 1.405 31.846 16.027 31.862 39.38.087.922.131 1.84.131 2.729v30.316c0 14.373-10.483 26.066-23.369 26.066zM87.055 77.688v21.559c0 12.787 9.193 23.19 20.493 23.19h25.865c11.3 0 20.494-10.403 20.494-23.19V68.93c0-.82-.042-1.668-.125-2.522l-.006-.14c.007-22.18-11.372-35.88-30.44-36.648l-1.426-.057.047-1.428c.103-3.071-1.548-5.99-3.296-9.08-2.47-4.367-5.23-9.246-2.98-15.165a12.228 12.228 0 0 0-1.969 1.82c-2.284 2.6-5.914 8.727-4.558 20.546l.134 1.164-1.117.399c-.339.11-1.192.25-1.819-.842-1.006-1.754-2.565-3.467-4.634-5.09-2.957-2.317-4.846-4.743-5.654-7.25a16.238 16.238 0 0 0-.94 3.895c-.412 3.605.176 9.25 5.313 15.672l.156.19c.904 1.099.016 1.999-.022 2.037-.039.038-.952.914-2.029.004-1.548-1.308-3.94-2.631-6.737-3.725-2.544-.995-4.284-2.131-5.493-3.231.68 4.094 2.544 9.894 6.922 13.035l1.578 1.132-1.543 1.179c-6.034 4.61-6.055 11.893-6.079 20.327l-.01 1.256c-.03.323-.064 2.244-.047 9.566l.001.79z"/></g><g><path fill="#d8d8d8" d="M141.727 53.5a6.416 6.416 0 1 1-12.831 0 6.416 6.416 0 0 1 12.832 0z"/></g><g><path fill="#474746" d="M127.459 53.5c0-4.33 3.523-7.853 7.853-7.853s7.853 3.523 7.853 7.853-3.523 7.853-7.853 7.853-7.853-3.523-7.853-7.853zm2.875 0a4.983 4.983 0 0 0 4.978 4.978 4.983 4.983 0 0 0 4.978-4.978 4.983 4.983 0 0 0-4.978-4.978 4.983 4.983 0 0 0-4.978 4.978z"/></g><g><path fill="#e2e2e2" d="M140.676 54.657a3.576 3.576 0 1 1-7.152 0 3.576 3.576 0 0 1 7.152 0z"/></g><g><path fill="#474746" d="M132.086 54.657a5.02 5.02 0 0 1 5.014-5.013 5.02 5.02 0 0 1 5.014 5.013 5.02 5.02 0 0 1-5.014 5.014 5.02 5.02 0 0 1-5.014-5.014zm2.876 0a2.14 2.14 0 0 0 2.138 2.139 2.14 2.14 0 0 0 2.138-2.14 2.14 2.14 0 0 0-2.138-2.137 2.14 2.14 0 0 0-2.138 2.138z"/></g><g><path fill="#d8d8d8" d="M123.455 71.776c-.678-1.221-28.76-12.526-40.562 7.28-6.757 11.34.226 22.113-4.341 41.919-.66 2.86 32.047 7.38 40.019-1.04 14.47-15.284 4.884-48.16 4.884-48.16z"/></g><g><path fill="#474746" d="M78.694 123.177c-1.646-.883-1.674-1.962-1.543-2.525 2.084-9.036 1.713-16.127 1.385-22.384-.38-7.254-.71-13.519 3.121-19.948 4.799-8.052 12.879-12.295 23.39-12.295.2 0 .398.001.6.004 5.175.08 9.744 1.144 12.666 2.025 1.703.513 5.737 1.835 6.398 3.024l.078.14.045.155c.401 1.375 9.647 33.847-5.22 49.55-3.729 3.94-12.208 5.287-20.57 5.287-8.806 0-17.482-1.494-20.35-3.033zm18.335.134c10.136.282 17.604-1.308 20.498-4.365 12.851-13.574 5.711-42.425 4.667-46.33-2.004-1.158-12.694-5.14-22.995-3.193-6.65 1.255-11.72 4.744-15.071 10.37-3.384 5.678-3.091 11.26-2.721 18.325.33 6.304.704 13.43-1.314 22.56 1.655.882 8.183 2.388 16.936 2.633z"/></g><g><path fill="#d8d8d8" d="M144.576 72.229c.658 2.03 8.228 7.09 14 4.823 5.774-2.27-4.962-8.554-4.962-8.554z"/></g><g><path fill="#474746" d="M148.857 77.465c-2.407-1.137-5.088-3.06-5.649-4.793l-.41-1.265 10.925-4.51.616.36c1.796 1.052 7.635 4.746 7.37 8.15-.07.921-.582 2.186-2.607 2.982-1.235.486-2.493.675-3.705.675-2.649 0-5.074-.906-6.54-1.599zm-1.97-4.635c.772.669 1.996 1.516 3.618 2.226 1.629.713 4.776 1.747 7.546.657.565-.222.786-.442.793-.529.07-.918-2.414-3.252-5.352-5.08z"/></g><g><path fill="#ec6608" d="M143.484 73.84c-.524 0-3.142-15.45 11.26-15.45s14.664 20.164 7.07 22.783c-2.981 1.028-1.38-6.237-7.856-7.856-6.284-1.571-9.427.524-10.474.524z"/></g><g><path fill="#474746" d="M158.156 79.509c-.745-1.902-1.588-4.058-4.547-4.797-4.417-1.104-7.032-.27-8.595.228-.593.189-1.062.338-1.53.338-.636 0-1.96 0-1.96-4.933 0-2.316.42-5.672 2.416-8.513 2.275-3.237 5.91-4.88 10.803-4.88 8.3 0 12.266 6.023 13.21 11.66 1.081 6.448-1.357 12.433-5.67 13.92-.383.132-.73.19-1.047.19-1.82 0-2.59-1.965-3.08-3.213zm-3.85-7.587c4.398 1.1 5.731 4.504 6.527 6.539.178.453.41 1.045.585 1.327 2.86-1.056 4.516-5.83 3.7-10.702-.364-2.171-2.188-9.257-10.375-9.257-3.947 0-6.809 1.258-8.509 3.74-1.95 2.848-1.976 6.637-1.743 8.52 1.118-.35 2.75-.798 4.99-.798 1.373 0 2.973.168 4.825.63z"/></g><g><path fill="#fff" d="M196.49 135.689c0-2.42 1.43-3.74 3.849-3.74h4.84c2.42 0 3.85 1.32 3.85 3.74v43.666c0 3.519 1.21 4.84 4.18 4.84 2.969 0 4.509-1.43 4.509-4.951v-43.555c0-2.42 1.32-3.74 3.739-3.74h4.95c2.42 0 3.74 1.32 3.74 3.74v54.775c0 2.309-1.32 3.739-3.74 3.739h-4.95c-2.42 0-3.74-1.43-3.74-3.74v-.55c-3.19 3.08-7.478 4.84-11.328 4.84-5.39 0-9.9-3.41-9.9-11.548z"/></g></g></svg>