<svg xmlns="http://www.w3.org/2000/svg" width="1920" height="877" viewBox="0 0 1920 877"><g><g><path fill="#009eb7" d="M0 877h1920V0H0z"/></g><g opacity=".4"><g opacity=".4"><path fill="#fff" d="M618.213 564.449h2.83l44.218-102.232c2.121-4.601 6.013-7.075 11.672-7.075h21.226c12.381 0 13.088 11.674 10.965 16.98l-49.169 111.072 49.17 111.076c2.122 5.306 1.415 16.98-10.966 16.98h-21.226c-5.659 0-9.55-2.474-11.672-7.074l-44.219-102.232h-2.829v96.926c0 7.78-4.598 12.38-12.38 12.38h-20.165c-7.78 0-12.38-4.6-12.38-12.38V467.169c0-7.784 4.6-12.027 12.38-12.027h20.164c7.783 0 12.381 4.243 12.381 12.027z"/></g><g opacity=".4"><path fill="#fff" d="M746.628 440.64c-14.15 0-23.7 9.902-23.7 23.698 0 14.149 9.55 23.702 23.7 23.702 13.796 0 23.702-9.553 23.702-23.702 0-13.796-9.906-23.698-23.702-23.698zm20.165 82.42c0-7.784-4.6-12.027-12.382-12.027h-15.565c-7.781 0-12.381 4.243-12.381 12.027v175.81c0 7.78 4.6 12.38 12.38 12.38h15.566c7.782 0 12.382-4.6 12.382-12.38z"/></g><g opacity=".4"><path fill="#fff" d="M903.335 735.306c0 31.483-17.333 46.694-55.184 46.694h-22.285c-7.782 0-12.028-4.247-12.028-12.027v-6.722c0-7.784 4.246-12.38 12.028-12.38h22.285c10.966 0 15.211-5.663 15.211-16.628v-36.788c-10.259 9.905-24.055 15.564-36.435 15.564-17.334 0-31.838-10.964-31.838-37.141V546.406c0-26.177 14.504-37.142 31.838-37.142 12.38 0 26.176 5.659 36.435 15.565v-1.77c0-7.783 4.246-12.026 12.026-12.026h15.92c7.782 0 12.027 4.243 12.027 12.027zm-67.918-71.81c0 11.319 3.89 15.566 13.441 15.566s14.504-4.6 14.504-15.921V559.143c0-11.322-4.953-16.274-14.504-16.274-9.55 0-13.44 4.599-13.44 15.565z"/></g><g opacity=".4"><path fill="#fff" d="M999.905 594.163v-38.204c0-11.322-4.596-15.565-14.149-15.565-9.196 0-13.796 4.243-13.796 15.565v8.133c0 7.784-4.596 12.028-12.38 12.028h-15.566c-7.78 0-12.38-4.244-12.38-12.028v-9.196c0-30.773 17.333-45.632 54.122-45.632 36.79 0 54.122 14.859 54.122 45.632v144.327c0 7.428-4.243 12.028-12.027 12.028h-15.918c-7.78 0-12.028-4.6-12.028-12.028v-1.768c-10.259 9.905-24.05 15.565-36.435 15.565-17.334 0-31.836-10.965-31.836-37.142v-36.083c0-30.777 17.333-45.632 54.122-45.632zm-14.149 30.067c-9.196 0-13.796 4.6-13.796 15.565v23.702c0 11.318 3.894 15.565 13.443 15.565 9.55 0 14.502-4.6 14.502-15.921V624.23z"/></g><g opacity=".4"><path fill="#fff" d="M1176.423 699.223c0 7.428-4.243 12.028-12.027 12.028h-15.918c-7.781 0-12.028-4.6-12.028-12.028v-1.768c-10.26 9.905-24.051 15.564-36.435 15.564-17.334 0-31.834-10.964-31.834-37.141V546.406c0-26.177 14.5-37.142 31.834-37.142 12.384 0 26.176 5.659 36.435 15.565v-84.546c0-7.781 4.247-12.028 12.028-12.028h15.918c7.784 0 12.027 4.247 12.027 12.028zm-67.918-35.726c0 11.318 3.894 15.565 13.443 15.565s14.502-4.6 14.502-15.921V559.143c0-11.322-4.953-16.274-14.502-16.274-9.55 0-13.443 4.599-13.443 15.565z"/></g><g opacity=".4"><path fill="#fff" d="M846.024 167.958c-1.963-5.235-2.877 41.648 24.36 61.19-15.035 21.123-21.254 43.4-21.38 72.644a88.854 88.854 0 0 0-.422 8.557v97.501c0 43.564 31.74 79.207 70.534 79.207h83.184c38.793 0 70.533-35.643 70.533-79.207v-97.501c0-2.891-.149-5.744-.42-8.557.025-73.188-37.327-119.873-102.335-122.49.945-28.214-37.118-49.948-16.954-83.705 5.28-8.837-41.728 5.753-33.439 78.033.136 1.186-2.835-7.526-16.47-18.215-17.787-13.945-18.815-25.876-17.452-33.377.904-4.971-30.71 32.536 6.872 79.515 3.054 3.818-2.4-4.145-22.469-11.998-19.478-7.622-22.684-17.708-24.142-21.597z"/></g><g opacity=".4"><path fill="#424241" d="M918.678 489.69c-41.442 0-75.157-37.606-75.157-83.832l.017-69.93.237-2.762-.004-2.133c-.044-19.53.008-29.041.172-31.42l.011-3.433c.077-26.39.15-51.42 18.756-68.943-22.48-20.448-23.615-57.652-22.096-62.645.795-2.612 2.86-3.6 4.527-3.652 1.694-.051 3.803.814 4.775 3.402l.147.398c1.32 3.557 4.408 11.888 21.35 18.517 2.184.855 4.306 1.756 6.347 2.69-15.704-30.347-6.774-56.338 1.533-67.102 1.088-1.411 3.982-5.16 7.824-3.451 1.73.769 3.252 2.762 2.758 5.479-1.773 9.754 3.381 19.21 15.755 28.91 2.951 2.314 5.628 4.696 8.024 7.134-.562-42.367 18.871-62.986 31.657-68.698 6.273-2.803 9.455-1.293 11.018.469 1.354 1.52 2.15 4.237.328 7.29-10.796 18.073-3.102 31.672 5.809 47.419 5.266 9.309 10.69 18.896 11.662 29.532 64.229 4.519 102.42 51.544 102.47 126.652a93.76 93.76 0 0 1 .423 8.777v97.5c0 46.226-33.716 83.832-75.157 83.832zm-65.91-153.17v69.338c0 41.126 29.567 74.585 65.91 74.585h83.185c36.343 0 65.91-33.46 65.91-74.585v-97.5c0-2.637-.134-5.365-.4-8.112l-.022-.446c.024-71.338-36.572-115.4-97.897-117.87l-4.589-.185.154-4.59c.332-9.879-4.98-19.267-10.603-29.205-7.945-14.042-16.823-29.735-9.582-48.772-1.915 1.393-4.087 3.303-6.332 5.857-7.346 8.362-19.02 28.065-14.66 66.076l.43 3.744-3.59 1.284c-1.09.357-3.836.806-5.85-2.708-3.236-5.644-8.25-11.153-14.906-16.37-9.509-7.455-15.585-15.257-18.185-23.32a52.334 52.334 0 0 0-3.02 12.528c-1.325 11.594.565 29.75 17.088 50.403l.499.615c2.909 3.531.052 6.426-.071 6.55-.124.121-3.06 2.936-6.525.01-4.977-4.205-12.672-8.459-21.668-11.979-8.18-3.202-13.777-6.852-17.664-10.392 2.186 13.166 8.18 31.82 22.262 41.923l5.073 3.641-4.962 3.79c-19.406 14.827-19.473 38.252-19.552 65.376l-.033 4.04c-.097 1.036-.203 7.217-.15 30.766l.004 2.544z"/></g><g opacity=".4"><path fill="#d8d8d8" d="M1028.603 258.73c0 11.395-9.238 20.632-20.633 20.632-11.396 0-20.634-9.237-20.634-20.633 0-11.396 9.238-20.634 20.634-20.634 11.395 0 20.633 9.238 20.633 20.634z"/></g><g opacity=".4"><path fill="#474746" d="M982.712 258.73c0-13.927 11.331-25.257 25.257-25.257 13.927 0 25.258 11.33 25.258 25.257 0 13.926-11.33 25.256-25.258 25.256-13.926 0-25.257-11.33-25.257-25.256zm9.247 0c0 8.827 7.182 16.009 16.01 16.009 8.828 0 16.011-7.182 16.011-16.01 0-8.827-7.183-16.01-16.01-16.01-8.829 0-16.01 7.183-16.01 16.01z"/></g><g opacity=".4"><path fill="#e2e2e2" d="M1025.22 262.45c0 6.352-5.149 11.5-11.5 11.5-6.352 0-11.5-5.148-11.5-11.5s5.148-11.5 11.5-11.5c6.351 0 11.5 5.148 11.5 11.5z"/></g><g opacity=".4"><path fill="#474746" d="M997.596 262.45c0-8.891 7.233-16.124 16.124-16.124 8.891 0 16.124 7.233 16.124 16.124 0 8.89-7.233 16.124-16.124 16.124-8.89 0-16.124-7.233-16.124-16.124zm9.247 0a6.883 6.883 0 0 0 6.877 6.877 6.883 6.883 0 0 0 6.877-6.877 6.883 6.883 0 0 0-6.877-6.877 6.883 6.883 0 0 0-6.877 6.877z"/></g><g opacity=".4"><path fill="#d8d8d8" d="M969.835 317.507c-2.182-3.927-92.495-40.285-130.453 23.415-21.733 36.47.727 71.116-13.961 134.815-2.122 9.203 103.068 23.736 128.707-3.345 46.539-49.156 15.707-154.885 15.707-154.885z"/></g><g opacity=".4"><path fill="#474746" d="M825.876 482.82c-5.292-2.839-5.38-6.307-4.96-8.12 6.7-29.062 5.506-51.868 4.452-71.989-1.223-23.33-2.278-43.479 10.042-64.157 15.43-25.895 41.417-39.543 75.222-39.543.642 0 1.283.005 1.929.014 16.646.253 31.342 3.681 40.739 6.511 5.478 1.65 18.452 5.902 20.576 9.726l.25.453.147.497c1.289 4.422 31.025 108.857-16.787 159.36-11.994 12.667-39.265 17.003-66.162 17.003-28.318 0-56.22-4.806-65.448-9.755zm58.972.432c32.596.906 56.613-4.207 65.922-14.038 41.332-43.657 18.37-136.444 15.012-149.004-6.45-3.724-40.83-16.534-73.96-10.27-21.381 4.038-37.688 15.258-48.468 33.348-10.883 18.265-9.943 36.214-8.752 58.94 1.062 20.273 2.264 43.188-4.226 72.556 5.325 2.835 26.32 7.681 54.472 8.468z"/></g><g opacity=".4"><path fill="#d8d8d8" d="M1037.762 318.963c2.117 6.529 26.461 22.807 45.03 15.51 18.566-7.297-15.963-27.51-15.963-27.51z"/></g><g opacity=".4"><path fill="#474746" d="M1051.533 335.805c-7.742-3.659-16.362-9.844-18.168-15.416l-1.32-4.068 35.14-14.505 1.98 1.158c5.776 3.381 24.555 15.264 23.704 26.21-.23 2.963-1.872 7.032-8.387 9.593-3.972 1.561-8.018 2.168-11.913 2.168-8.523 0-16.321-2.912-21.036-5.14zm-6.338-14.908c2.483 2.153 6.418 4.875 11.637 7.16 5.238 2.292 15.358 5.616 24.268 2.112 1.817-.713 2.528-1.422 2.55-1.702.23-2.953-7.762-10.46-17.213-16.339z"/></g><g opacity=".4"><path fill="#ec6608" d="M1034.25 324.147c-1.683 0-10.105-49.688 36.215-49.688 46.32 0 47.162 64.847 22.739 73.27-9.588 3.306-4.435-20.058-25.266-25.265-20.212-5.053-30.318 1.684-33.687 1.684z"/></g><g opacity=".4"><path fill="#474746" d="M1081.44 342.376c-2.395-6.116-5.109-13.05-14.623-15.428-14.207-3.55-22.617-.866-27.644.735-1.907.609-3.414 1.088-4.922 1.088-2.045 0-6.3 0-6.3-15.867 0-7.448 1.346-18.241 7.767-27.377 7.317-10.413 19.008-15.691 34.746-15.691 26.692 0 39.449 19.367 42.485 37.494 3.476 20.74-4.365 39.986-18.238 44.769-1.231.425-2.348.616-3.365.616-5.858 0-8.334-6.323-9.906-10.34zm-12.381-24.398c14.143 3.536 18.431 14.486 20.992 21.028.57 1.457 1.317 3.36 1.881 4.268 9.194-3.396 14.523-18.745 11.898-34.417-1.171-6.984-7.036-29.774-33.366-29.774-12.694 0-21.901 4.047-27.366 12.028-6.272 9.159-6.357 21.345-5.606 27.404 3.594-1.123 8.84-2.568 16.048-2.568 4.415 0 9.563.542 15.519 2.03z"/></g><g opacity=".4"><path fill="#fff" d="M1204.725 523.06c0-7.785 4.6-12.028 12.38-12.028h15.565c7.785 0 12.381 4.243 12.381 12.028v140.437c0 11.317 3.894 15.564 13.443 15.564 9.55 0 14.502-4.6 14.502-15.92V523.06c0-7.786 4.247-12.029 12.028-12.029h15.918c7.784 0 12.027 4.243 12.027 12.028v176.163c0 7.427-4.243 12.027-12.027 12.027h-15.918c-7.78 0-12.028-4.6-12.028-12.027v-1.769c-10.259 9.906-24.05 15.565-36.435 15.565-17.334 0-31.836-10.965-31.836-37.142z"/></g></g><g><path fill="#fff" d="M1148 270c27.5 0 50 22.5 50 50v212c0 27.5-22.5 50-50 50H709.824c-27.5 0-50-22.5-50-50V320c0-27.5 22.5-50 50-50zm-125.822 156.356L897 354.084v144.543l62.589-36.136z"/></g><g><path fill="none" stroke="#fff" stroke-miterlimit="20" stroke-width="2" d="M1148 270c27.5 0 50 22.5 50 50v212c0 27.5-22.5 50-50 50H709.824c-27.5 0-50-22.5-50-50V320c0-27.5 22.5-50 50-50zM959.589 462.49l62.589-36.134L897 354.084v144.543z"/></g></g></svg>