<svg xmlns="http://www.w3.org/2000/svg" viewBox="0 0 348 348"><defs><style>.cls-1{fill:#589cb4;}.cls-2{fill:#fff;}.cls-3{fill:#444443;}.cls-4{fill:#d6d6d6;}.cls-5{fill:#494948;}.cls-6{fill:#e0e0e0;}.cls-7{fill:#cf661c;}</style></defs><title>Безымянный-1</title><g id="Слой_2" data-name="Слой 2"><path class="cls-1" d="M374,424H126a50.15,50.15,0,0,1-50-50V126a50.15,50.15,0,0,1,50-50H374a50.15,50.15,0,0,1,50,50V374a50.15,50.15,0,0,1-50,50" transform="translate(-76 -76)"/></g><g id="Слой_3" data-name="Слой 3"><path class="cls-2" d="M168.48,159.59c-1.27-3.42-1.86,27.18,15.81,39.93-9.75,13.79-13.79,28.33-13.87,47.41-.18,1.84-.28,3.7-.28,5.59v63.63c0,28.43,20.6,51.69,45.77,51.69h54c25.17,0,45.76-23.26,45.76-51.69V252.52c0-1.89-.1-3.75-.27-5.59,0-47.76-24.22-78.23-66.4-79.94.61-18.41-24.09-32.59-11-54.63,3.42-5.76-27.08,3.76-21.7,50.93.09.77-1.84-4.91-10.69-11.89-11.54-9.1-12.2-16.88-11.32-21.78.59-3.24-19.93,21.23,4.46,51.89,2,2.5-1.56-2.7-14.58-7.83-12.64-5-14.72-11.55-15.67-14.09" transform="translate(-76 -76)"/><path class="cls-3" d="M269.6,369.56h-54c-26.89,0-48.77-24.54-48.77-54.71V269.21l.16-1.8V266c0-12.75,0-19,.11-20.51v-2.24c.05-17.22.1-33.56,12.17-45C164.73,184.93,164,160.65,165,157.39a3.13,3.13,0,0,1,6-.16l.1.26c.85,2.32,2.86,7.76,13.85,12.08,1.42.56,2.79,1.15,4.12,1.76-10.19-19.81-4.4-36.77,1-43.79.71-.92,2.59-3.37,5.08-2.26a3.21,3.21,0,0,1,1.79,3.58c-1.15,6.37,2.19,12.54,10.22,18.87a55.56,55.56,0,0,1,5.21,4.65c-.37-27.65,12.24-41.1,20.54-44.83,4.07-1.83,6.13-.85,7.15.3a3.94,3.94,0,0,1,.21,4.76c-7,11.8-2,20.67,3.77,31,3.41,6.08,6.93,12.33,7.57,19.27,41.67,2.95,66.45,33.64,66.48,82.66.19,1.94.28,3.86.28,5.73v63.63c0,30.17-21.88,54.71-48.77,54.71m-96.74-100v45.25c0,26.84,19.19,48.68,42.77,48.68h54c23.58,0,42.77-21.84,42.77-48.68V251.22c0-1.72-.09-3.5-.26-5.3l0-.29c0-46.55-23.73-75.31-63.52-76.92l-3-.12.1-3c.21-6.45-3.24-12.57-6.88-19.06-5.16-9.16-10.92-19.4-6.22-31.83a26.13,26.13,0,0,0-4.11,3.82c-4.77,5.46-12.34,18.32-9.51,43.13l.28,2.44-2.33.84c-.71.23-2.49.52-3.8-1.77a37.91,37.91,0,0,0-9.67-10.68c-6.17-4.87-10.11-10-11.8-15.22a34.37,34.37,0,0,0-2,8.17c-.86,7.57.37,19.42,11.09,32.9l.32.4a3.09,3.09,0,0,1,0,4.27,3.05,3.05,0,0,1-4.24,0,52,52,0,0,0-14.06-7.82,36.41,36.41,0,0,1-11.46-6.78c1.42,8.59,5.31,20.77,14.45,27.36l3.29,2.38-3.22,2.47c-12.59,9.68-12.64,25-12.69,42.67l0,2.63c-.06.68-.13,4.71-.1,20.08v1.66Z" transform="translate(-76 -76)"/><path class="cls-4" d="M287,218.83a13.39,13.39,0,1,1-13.39-13.47A13.43,13.43,0,0,1,287,218.83" transform="translate(-76 -76)"/><path class="cls-5" d="M273.56,235.31A16.48,16.48,0,1,1,290,218.83a16.45,16.45,0,0,1-16.39,16.48m0-26.93A10.45,10.45,0,1,0,284,218.83a10.43,10.43,0,0,0-10.39-10.45" transform="translate(-76 -76)"/><path class="cls-6" d="M284.76,221.26a7.47,7.47,0,1,1-7.47-7.51,7.48,7.48,0,0,1,7.47,7.51" transform="translate(-76 -76)"/><path class="cls-5" d="M277.3,231.78a10.53,10.53,0,1,1,10.46-10.52,10.51,10.51,0,0,1-10.46,10.52m0-15a4.49,4.49,0,1,0,4.46,4.49,4.48,4.48,0,0,0-4.46-4.49" transform="translate(-76 -76)"/><path class="cls-4" d="M248.82,257.19c-1.42-2.56-60-26.29-84.65,15.28-14.1,23.8.48,46.41-9,88-1.38,6,66.87,15.49,83.51-2.19,30.19-32.08,10.19-101.08,10.19-101.08" transform="translate(-76 -76)"/><path class="cls-5" d="M197.88,371.44c-18.38,0-36.48-3.13-42.47-6.36-3.43-1.85-3.49-4.12-3.22-5.3,4.35-19,3.57-33.85,2.89-47-.79-15.23-1.48-28.38,6.52-41.87,10-16.9,26.87-25.81,48.81-25.81h1.25a97.9,97.9,0,0,1,26.43,4.25c3.56,1.07,12,3.85,13.35,6.34l.16.3.1.32c.84,2.89,20.13,71.05-10.89,104-7.79,8.26-25.48,11.09-42.93,11.09m-39.55-11.61c3.46,1.85,17.08,5,35.35,5.53,21.15.59,36.73-2.75,42.77-9.16,26.82-28.49,11.92-89.05,9.74-97.25-4.18-2.43-26.49-10.79-48-6.7-13.87,2.64-24.45,10-31.45,21.77s-6.45,23.63-5.68,38.46c.69,13.23,1.47,28.19-2.74,47.35" transform="translate(-76 -76)"/><path class="cls-4" d="M292.89,258.14c1.38,4.26,17.17,14.88,29.22,10.12s-10.36-17.95-10.36-17.95Z" transform="translate(-76 -76)"/><path class="cls-5" d="M315.48,272.49a33,33,0,0,1-13.65-3.36c-5-2.39-10.62-6.42-11.79-10.06l-.85-2.65L312,247l1.28.75c3.75,2.21,15.93,10,15.38,17.11-.15,1.93-1.21,4.59-5.44,6.26a20.89,20.89,0,0,1-7.73,1.42M297.72,259.4a29.9,29.9,0,0,0,7.55,4.67c3.4,1.5,10,3.67,15.74,1.38,1.18-.46,1.65-.93,1.66-1.11.15-1.93-5-6.82-11.17-10.66Z" transform="translate(-76 -76)"/><path class="cls-7" d="M290.62,261.52c-1.1,0-6.56-32.42,23.49-32.42s30.61,42.32,14.76,47.81c-6.22,2.16-2.88-13.09-16.4-16.49-13.11-3.29-19.67,1.1-21.85,1.1" transform="translate(-76 -76)"/><path class="cls-5" d="M327.66,280.17c-3.8,0-5.4-4.13-6.42-6.75-1.56-4-3.32-8.52-9.49-10.07-9.22-2.32-14.68-.56-17.94.48a10.66,10.66,0,0,1-3.19.71c-1.33,0-4.09,0-4.09-10.35,0-4.87.87-11.91,5-17.87,4.75-6.8,12.33-10.24,22.54-10.24,17.32,0,25.6,12.64,27.57,24.47,2.26,13.53-2.83,26.09-11.83,29.22a6.89,6.89,0,0,1-2.19.4m-24.53-24a40.73,40.73,0,0,1,10.07,1.33c9.18,2.3,12,9.45,13.62,13.72A23.46,23.46,0,0,0,328,274c6-2.22,9.43-12.24,7.72-22.47-.76-4.55-4.56-19.43-21.65-19.43-8.23,0-14.21,2.64-17.75,7.85-4.07,6-4.13,13.93-3.64,17.89a33,33,0,0,1,10.41-1.68" transform="translate(-76 -76)"/></g></svg>