<svg xmlns="http://www.w3.org/2000/svg" width="349" height="349" viewBox="0 0 349 349"><g><g><path fill="#009eb7" d="M298.817 348.454h-248c-27.5 0-50-22.5-50-50v-248c0-27.5 22.5-50 50-50h248c27.5 0 50 22.5 50 50v248c0 27.5-22.5 50-50 50z"/></g><g opacity=".4"><g opacity=".4"><path fill="#424241" d="M348.864 250.65v48c0 27.5-22.5 50-50 50h-248c-27.5 0-50-22.5-50-50v-48z"/></g></g><g><path fill="#fff" d="M105.484 93.589c-1.273-3.417-1.866 27.18 15.807 39.935-9.756 13.785-13.792 28.324-13.873 47.41a58.128 58.128 0 0 0-.274 5.584v63.632c0 28.43 20.595 51.693 45.766 51.693h53.975c25.171 0 45.766-23.262 45.766-51.693v-63.632c0-1.887-.097-3.75-.274-5.584.017-47.766-24.219-78.233-66.4-79.942.614-18.413-24.084-32.597-11-54.628 3.425-5.767-27.076 3.755-21.697 50.927.088.774-1.84-4.912-10.687-11.89-11.54-9.1-12.208-16.886-11.324-21.781.586-3.244-19.927 21.234 4.46 51.894 1.981 2.492-1.558-2.705-14.58-7.83-12.639-4.974-14.719-11.557-15.665-14.095z"/></g><g><path fill="#424241" d="M152.626 303.56c-26.89 0-48.766-24.543-48.766-54.71l.011-45.64.154-1.802-.003-1.392c-.028-12.746.005-18.953.112-20.505l.007-2.24c.05-17.224.097-33.558 12.17-44.995-14.586-13.345-15.323-37.626-14.337-40.884.516-1.705 1.855-2.349 2.937-2.383 1.1-.034 2.468.531 3.098 2.22l.096.26c.856 2.321 2.86 7.758 13.853 12.084a80.114 80.114 0 0 1 4.118 1.755c-10.189-19.805-4.395-36.768.995-43.792.706-.92 2.584-3.367 5.077-2.252 1.121.501 2.11 1.802 1.79 3.575-1.15 6.366 2.193 12.537 10.222 18.868a54.285 54.285 0 0 1 5.207 4.656c-.365-27.65 12.244-41.107 20.54-44.835 4.071-1.829 6.135-.844 7.15.306.878.994 1.394 2.765.211 4.758-7.004 11.795-2.012 20.671 3.77 30.947 3.416 6.076 6.936 12.332 7.567 19.273 41.675 2.95 66.456 33.64 66.49 82.657a61.8 61.8 0 0 1 .272 5.73v63.63c0 30.168-21.876 54.711-48.766 54.711zm-42.766-99.962v45.251c0 26.84 19.185 48.677 42.766 48.677h53.975c23.582 0 42.766-21.837 42.766-48.677v-63.63c0-1.722-.087-3.503-.259-5.295l-.014-.292c.016-46.556-23.73-75.313-63.52-76.925l-2.979-.12.1-2.995c.215-6.448-3.23-12.575-6.88-19.06-5.155-9.165-10.916-19.407-6.218-31.83-1.242.91-2.65 2.155-4.108 3.822-4.766 5.457-12.34 18.316-9.512 43.123l.28 2.443-2.33.838c-.708.233-2.49.526-3.797-1.767-2.099-3.684-5.353-7.279-9.67-10.684-6.17-4.865-10.114-9.957-11.8-15.219a34.292 34.292 0 0 0-1.96 8.176c-.86 7.566.366 19.415 11.087 32.895l.324.401c1.887 2.305.033 4.194-.046 4.274-.08.08-1.986 1.917-4.234.007-3.23-2.744-8.223-5.52-14.059-7.817-5.308-2.09-8.94-4.473-11.462-6.783 1.42 8.593 5.308 20.767 14.445 27.361l3.292 2.376-3.219 2.473c-12.592 9.677-12.636 24.964-12.687 42.666l-.022 2.637c-.062.676-.13 4.71-.097 20.08l.003 1.66z"/></g><g><path fill="#d8d8d8" d="M223.952 152.83c0 7.436-5.994 13.465-13.388 13.465s-13.388-6.029-13.388-13.466c0-7.437 5.994-13.466 13.388-13.466s13.388 6.03 13.388 13.466z"/></g><g><path fill="#474746" d="M194.175 152.829c0-9.09 7.352-16.483 16.388-16.483 9.037 0 16.39 7.394 16.39 16.483s-7.353 16.483-16.39 16.483c-9.036 0-16.388-7.394-16.388-16.483zm6 0c0 5.76 4.66 10.448 10.388 10.448s10.39-4.687 10.39-10.448-4.662-10.448-10.39-10.448c-5.728 0-10.388 4.687-10.388 10.448z"/></g><g><path fill="#e2e2e2" d="M221.757 155.257c0 4.145-3.341 7.505-7.462 7.505-4.122 0-7.462-3.36-7.462-7.505 0-4.146 3.34-7.506 7.462-7.506 4.121 0 7.462 3.36 7.462 7.506z"/></g><g><path fill="#474746" d="M203.833 155.257c0-5.802 4.693-10.523 10.462-10.523s10.462 4.721 10.462 10.523c0 5.803-4.693 10.523-10.462 10.523s-10.462-4.72-10.462-10.523zm6 0c0 2.475 2.001 4.489 4.462 4.489s4.462-2.014 4.462-4.489-2.001-4.488-4.462-4.488-4.462 2.013-4.462 4.488z"/></g><g><path fill="#d8d8d8" d="M185.82 191.189c-1.415-2.563-60.016-26.291-84.645 15.281-14.102 23.802.472 46.413-9.06 87.985-1.376 6.006 66.878 15.491 83.514-2.183 30.196-32.081 10.19-101.083 10.19-101.083z"/></g><g><path fill="#474746" d="M92.41 299.077c-3.432-1.852-3.49-4.116-3.217-5.3 4.348-18.965 3.572-33.849 2.889-46.981-.794-15.226-1.48-28.376 6.515-41.871 10.013-16.9 26.874-25.807 48.809-25.807.416 0 .832.004 1.25.009 10.802.165 20.338 2.402 26.435 4.249 3.555 1.078 11.973 3.853 13.35 6.348l.164.296.095.324c.836 2.885 20.13 71.044-10.893 104.003-7.782 8.267-25.477 11.097-42.93 11.097-18.373 0-36.478-3.136-42.466-6.367zm38.266.282c21.15.591 36.733-2.745 42.773-9.161 26.819-28.492 11.92-89.048 9.74-97.244-4.183-2.431-26.491-10.791-47.988-6.703-13.874 2.635-24.455 9.957-31.45 21.764-7.061 11.92-6.45 23.634-5.678 38.465.689 13.231 1.469 28.186-2.742 47.353 3.455 1.851 17.078 5.013 35.345 5.526z"/></g><g><path fill="#d8d8d8" d="M229.895 192.14c1.374 4.26 17.169 14.884 29.217 10.122 12.048-4.763-10.357-17.954-10.357-17.954z"/></g><g><path fill="#474746" d="M238.83 203.13c-5.023-2.387-10.616-6.423-11.788-10.06l-.856-2.655 22.8-9.467 1.285.756c3.748 2.207 15.933 9.962 15.38 17.106-.15 1.933-1.214 4.59-5.441 6.26-2.578 1.02-5.203 1.415-7.73 1.415-5.53 0-10.59-1.9-13.65-3.355zm-4.112-9.729c1.61 1.405 4.164 3.182 7.55 4.673 3.4 1.496 9.966 3.665 15.747 1.38 1.179-.467 1.64-.93 1.655-1.113.149-1.927-5.037-6.826-11.17-10.663z"/></g><g><path fill="#ec6608" d="M227.617 195.523c-1.093 0-6.557-32.428 23.498-32.428 30.054 0 30.6 42.322 14.753 47.818-6.22 2.157-2.878-13.091-16.394-16.49-13.115-3.297-19.672 1.1-21.858 1.1z"/></g><g><path fill="#474746" d="M258.236 207.42c-1.554-3.992-3.315-8.517-9.488-10.07-9.22-2.316-14.675-.565-17.937.48-1.238.398-2.216.71-3.195.71-1.326 0-4.088 0-4.088-10.355 0-4.861.875-11.905 5.04-17.868 4.748-6.794 12.333-10.24 22.545-10.24 17.32 0 25.597 12.64 27.567 24.47 2.255 13.536-2.832 26.096-11.834 29.218-.799.277-1.524.402-2.183.402-3.8 0-5.408-4.126-6.428-6.747zm-8.034-15.924c9.176 2.308 11.96 9.454 13.62 13.724.37.95.855 2.194 1.221 2.785 5.966-2.216 9.423-12.233 7.72-22.461-.76-4.56-4.564-19.432-21.65-19.432-8.235 0-14.21 2.642-17.755 7.85-4.07 5.978-4.125 13.93-3.638 17.885 2.332-.733 5.736-1.676 10.413-1.676 2.864 0 6.205.354 10.07 1.325z"/></g></g></svg>