<?xml version="1.0" encoding="UTF-8"?>
<svg preserveAspectRatio="xMidYMid slice" xmlns="http://www.w3.org/2000/svg" width="43px" height="68px" viewBox="0 0 98 153">
  <g>
    <g>
      <path fill="#fff" d="M93.119 149.378H4.502V4.452h88.617z"></path>
    </g>
    <g>
      <path fill="#414042" d="M87.04.46c6.025 0 10.925 4.9 10.925 10.924v130.583c0 6.023-4.9 10.923-10.925 10.923H11.135c-6.023 0-10.923-4.9-10.923-10.923V11.384C.212 5.36 5.112.46 11.135.46zm5.617 10.924a5.622 5.622 0 0 0-5.617-5.615H11.135a5.622 5.622 0 0 0-5.616 5.615v130.583a5.622 5.622 0 0 0 5.616 5.615H87.04a5.622 5.622 0 0 0 5.617-5.615z"></path>
    </g>
    <g>
      <path fill="#414042" d="M62.77 16.852H35.407v-5.308H62.77z"></path>
    </g>
    <g>
      <path fill="#414042" d="M41.997 138.203a7.099 7.099 0 0 1 7.09-7.09c3.913 0 7.094 3.18 7.094 7.09 0 3.91-3.181 7.091-7.093 7.091a7.099 7.099 0 0 1-7.091-7.09zm5.308 0a1.785 1.785 0 0 0 3.568 0 1.785 1.785 0 0 0-3.568 0z"></path>
    </g>
    <g>
      <path fill="#d1d3d4" d="M86.066 128.561H12.111V24.346h73.955z"></path>
    </g>
  </g>
</svg>
