<svg xmlns="http://www.w3.org/2000/svg" width="86" height="131" viewBox="0 0 86 131"><defs><clipPath id="a7dna"><path d="M10.639 32.479v15.899h4.866V32.479C15.505 17.466 27.7 5.25 42.68 5.25V.376c-17.663 0-32.041 14.396-32.041 32.103z"/></clipPath><clipPath id="a7dnb"><path d="M41.437 5.25c14.981 0 27.176 12.216 27.176 27.229v14.976h4.86V32.479C73.473 14.772 59.099.376 41.437.376z"/></clipPath><clipPath id="a7dnc"><path d="M76.987 120.846a4.2 4.2 0 0 1-4.19 4.191H.375a4.199 4.199 0 0 0 4.185 4.193h72.427a4.204 4.204 0 0 0 4.191-4.193V52.474c0-2.311 1.271-4.191-4.191-4.191z"/></clipPath><clipPath id="a7dnd"><path d="M31.171 78.729c0 5.479 4.437 9.915 9.904 9.915 5.471 0 9.898-4.436 9.898-9.915 0-5.481-4.427-9.916-9.898-9.916-5.467 0-9.904 4.435-9.904 9.916z"/></clipPath><clipPath id="a7dne"><path d="M38.015 83.49v19.285c0 2.43 1.982 4.409 4.401 4.409 2.423 0 4.399-1.979 4.399-4.409V83.49c0-2.427-1.976-4.413-4.399-4.413-2.419 0-4.401 1.986-4.401 4.413z"/></clipPath><clipPath id="a7dnf"><path d="M5.241 50.547c0-.442.366-.814.808-.814H80.36c.439 0 .812.372.812.814v74.451a.824.824 0 0 1-.812.814H6.049a.819.819 0 0 1-.808-.814zm.808-5.688c-3.129 0-5.674 2.555-5.674 5.688v74.451c0 3.138 2.545 5.689 5.674 5.689H80.36c3.133 0 5.678-2.551 5.678-5.689V50.547c0-3.133-2.545-5.688-5.678-5.688z"/></clipPath></defs><g><g><path fill="#fff" d="M83.374 127.763H3.064V47.454l80.31.923z"/></g><g/><g clip-path="url(#a7dna)"><path fill="#414042" d="M-6.469 96.255H59.79V-16.733H-6.469z"/></g><g/><g clip-path="url(#a7dnb)"><path fill="#414042" d="M24.328 96.255h66.255V-16.733H24.328z"/></g><g/><g clip-path="url(#a7dnc)"><path fill="#bbbdbf" d="M-13.964 146.339h115.019V31.173H-13.964z"/></g><g><path fill="#2bb9d9" d="M50.975 78.73c0 5.477-4.428 9.913-9.9 9.913-5.466 0-9.904-4.436-9.904-9.913 0-5.481 4.438-9.918 9.904-9.918 5.472 0 9.9 4.437 9.9 9.918z"/></g><g/><g/><g clip-path="url(#a7dnd)"><path fill="#2bb9d9" d="M14.062 105.752h54.021V51.703H14.062z"/></g><g><path fill="#2bb9d9" d="M42.415 107.185c-2.419 0-4.4-1.981-4.4-4.41V83.492c0-2.428 1.981-4.413 4.4-4.413 2.423 0 4.4 1.985 4.4 4.413v19.285c0 2.428-1.977 4.409-4.4 4.409z"/></g><g/><g/><g clip-path="url(#a7dne)"><path fill="#2bb9d9" d="M20.906 124.293h43.018V61.968H20.906z"/></g><g/><g clip-path="url(#a7dnf)"><path fill="#414042" d="M-16.734 147.796h119.879V27.751H-16.734z"/></g></g></svg>