<?xml version="1.0" encoding="UTF-8"?>
<svg preserveAspectRatio="xMidYMid slice" xmlns="http://www.w3.org/2000/svg" width="32px" height="34px" viewBox="0 0 149 155">
  <g>
    <g>
      <path fill="#fff" d="M63.946 2.398l77.151 1.577 6.067 5.567-1.228 123.384-7.879 5.596H46.328l-7.777-5.596 1.77-128.84z"></path>
    </g>
    <g>
      <path fill="#414042" d="M148.573 122.174h-3.434V11.404c0-3.863-3.103-7.01-6.915-7.01V.914c5.704 0 10.35 4.707 10.35 10.49z"></path>
    </g>
    <g>
      <path fill="#414042" d="M37.376 79.86h3.434V11.403c0-3.863 3.103-7.01 6.915-7.01V.914c-5.704 0-10.35 4.707-10.35 10.49z"></path>
    </g>
    <g>
      <path fill="#e6e7e7" d="M52.292 91.5h81.363v6.969H52.292z"></path>
    </g>
    <g>
      <path fill="#e6e7e7" d="M52.292 78.956h81.363v6.969H52.292z"></path>
    </g>
    <g>
      <path fill="#e6e7e7" d="M52.292 62.23h81.363v6.969H52.292z"></path>
    </g>
    <g>
      <path fill="#e6e7e7" d="M52.292 51.08h81.363v6.969H52.292z"></path>
    </g>
    <g>
      <path fill="#e6e7e7" d="M52.292 18.747h24.71v6.969h-24.71z"></path>
    </g>
    <g>
      <path fill="#e6e7e7" d="M52.292 102.036h24.71v6.969h-24.71z"></path>
    </g>
    <g>
      <path fill="#e6e7e7" d="M105.542 102.459h28.112v6.969h-28.112z"></path>
    </g>
    <g>
      <path fill="#e6e7e7" d="M52.292 112.246h24.71v6.969h-24.71z"></path>
    </g>
    <g>
      <path fill="#414042" d="M138.915.914H46.992v3.515h91.923z"></path>
    </g>
    <g>
      <path fill="#414042" d="M148.571 18.747h-3.434v110.769c0 3.864-3.103 7.01-6.915 7.01H65.35a6.823 6.823 0 0 1-4.816-1.983L42.906 117.2a7.092 7.092 0 0 1-2.097-5.027V18.747h-3.433v93.427c0 2.82 1.142 5.56 3.137 7.524L58.14 137.04a10.219 10.219 0 0 0 7.21 2.966h72.872c5.704 0 10.35-4.707 10.35-10.491z"></path>
    </g>
    <g>
      <path fill="#fff" d="M27.966 17.122l77.314 1.577 4.85 8.35v120.6l-7.896 5.597H10.311l-7.794-5.596V40.904z"></path>
    </g>
    <g>
      <path fill="#414042" d="M111.892 33.744h-3.433v110.769c0 3.864-3.104 7.01-6.916 7.01v3.48c5.704 0 10.35-4.706 10.35-10.49z"></path>
    </g>
    <g>
      <path fill="#414042" d="M.695 76.058h3.434v68.455c0 3.863 3.103 7.011 6.915 7.011v3.48c-5.704 0-10.35-4.708-10.35-10.49z"></path>
    </g>
    <g>
      <path fill="#e6e7e7" d="M15.611 81.419h81.362V74.45H15.611z"></path>
    </g>
    <g>
      <path fill="#e6e7e7" d="M15.611 93.963h81.362v-6.969H15.611z"></path>
    </g>
    <g>
      <path fill="#e6e7e7" d="M15.611 110.689h81.362v-6.969H15.611z"></path>
    </g>
    <g>
      <path fill="#e6e7e7" d="M15.611 121.839h81.362v-6.969H15.611z"></path>
    </g>
    <g>
      <path fill="#e6e7e7" d="M15.611 137.171H40.32v-6.969H15.611z"></path>
    </g>
    <g>
      <path fill="#e6e7e7" d="M15.611 53.881H40.32v-6.969H15.611z"></path>
    </g>
    <g>
      <path fill="#e6e7e7" d="M78.225 70.46h18.749v-6.969H78.225z"></path>
    </g>
    <g>
      <path fill="#e6e7e7" d="M15.611 43.671H40.32v-6.969H15.611z"></path>
    </g>
    <g>
      <path fill="#414042" d="M102.234 155.003H10.311v-3.516h91.923z"></path>
    </g>
    <g>
      <path fill="#2bb9d9" d="M26.313 18.699L2.517 40.903h23.796z"></path>
    </g>
    <g>
      <path fill="#414042" d="M21.27 43.787H3.407V40.33H21.27a4.457 4.457 0 0 0 4.45-4.452V18.7h3.452v17.18c0 4.362-3.546 7.908-7.902 7.908z"></path>
    </g>
    <g>
      <path fill="#414042" d="M111.89 137.17h-3.434V26.403c0-3.864-3.103-7.011-6.915-7.011H28.668a6.823 6.823 0 0 0-4.816 1.984L6.225 38.717a7.092 7.092 0 0 0-2.097 5.027v93.427H.695V43.744c0-2.821 1.142-5.561 3.137-7.524L21.46 18.877a10.219 10.219 0 0 1 7.21-2.966h72.872c5.704 0 10.35 4.707 10.35 10.49z"></path>
    </g>
  </g>
</svg>
